<svg xmlns="http://www.w3.org/2000/svg" viewBox="0 0 400 300">
  <defs>
    <linearGradient id="ms-cell" x1="0" y1="0" x2="0" y2="1">
      <stop offset="0%" stop-color="#d1d5db"/>
      <stop offset="100%" stop-color="#a9afba"/>
    </linearGradient>
    <linearGradient id="ms-open" x1="0" y1="0" x2="0" y2="1">
      <stop offset="0%" stop-color="#e8ebf0"/>
      <stop offset="100%" stop-color="#d0d4db"/>
    </linearGradient>
    <radialGradient id="ms-mine" cx="35%" cy="35%">
      <stop offset="0%" stop-color="#555"/>
      <stop offset="100%" stop-color="#111"/>
    </radialGradient>
    <filter id="ms-sh"><feDropShadow dx="1" dy="1" stdDeviation="0.8" flood-opacity="0.35"/></filter>
  </defs>
  <rect width="400" height="300" fill="#2a2f4a"/>
  <rect x="20" y="20" width="360" height="260" rx="8" fill="#4a556b" stroke="#1a1e2e" stroke-width="2"/>
  <g transform="translate(34,34)">
    <!-- 10x7 grid cells 33x33 -->
    <g filter="url(#ms-sh)">
      <!-- row 0 -->
      <rect x="0" y="0" width="33" height="33" rx="2" fill="url(#ms-open)"/>
      <rect x="34" y="0" width="33" height="33" rx="2" fill="url(#ms-open)"/>
      <rect x="68" y="0" width="33" height="33" rx="2" fill="url(#ms-cell)"/>
      <rect x="102" y="0" width="33" height="33" rx="2" fill="url(#ms-cell)"/>
      <rect x="136" y="0" width="33" height="33" rx="2" fill="url(#ms-open)"/>
      <rect x="170" y="0" width="33" height="33" rx="2" fill="url(#ms-open)"/>
      <rect x="204" y="0" width="33" height="33" rx="2" fill="url(#ms-cell)"/>
      <rect x="238" y="0" width="33" height="33" rx="2" fill="url(#ms-cell)"/>
      <rect x="272" y="0" width="33" height="33" rx="2" fill="url(#ms-open)"/>
      <rect x="306" y="0" width="33" height="33" rx="2" fill="url(#ms-open)"/>
      <!-- row 1 -->
      <rect x="0" y="34" width="33" height="33" rx="2" fill="url(#ms-open)"/>
      <rect x="34" y="34" width="33" height="33" rx="2" fill="url(#ms-open)"/>
      <rect x="68" y="34" width="33" height="33" rx="2" fill="url(#ms-open)"/>
      <rect x="102" y="34" width="33" height="33" rx="2" fill="url(#ms-cell)"/>
      <rect x="136" y="34" width="33" height="33" rx="2" fill="url(#ms-open)"/>
      <rect x="170" y="34" width="33" height="33" rx="2" fill="url(#ms-open)"/>
      <rect x="204" y="34" width="33" height="33" rx="2" fill="url(#ms-open)"/>
      <rect x="238" y="34" width="33" height="33" rx="2" fill="url(#ms-cell)"/>
      <rect x="272" y="34" width="33" height="33" rx="2" fill="url(#ms-open)"/>
      <rect x="306" y="34" width="33" height="33" rx="2" fill="url(#ms-open)"/>
      <!-- row 2 -->
      <rect x="0" y="68" width="33" height="33" rx="2" fill="url(#ms-open)"/>
      <rect x="34" y="68" width="33" height="33" rx="2" fill="url(#ms-open)"/>
      <rect x="68" y="68" width="33" height="33" rx="2" fill="url(#ms-open)"/>
      <rect x="102" y="68" width="33" height="33" rx="2" fill="url(#ms-open)"/>
      <rect x="136" y="68" width="33" height="33" rx="2" fill="url(#ms-cell)"/>
      <rect x="170" y="68" width="33" height="33" rx="2" fill="url(#ms-cell)"/>
      <rect x="204" y="68" width="33" height="33" rx="2" fill="url(#ms-cell)"/>
      <rect x="238" y="68" width="33" height="33" rx="2" fill="url(#ms-cell)"/>
      <rect x="272" y="68" width="33" height="33" rx="2" fill="url(#ms-cell)"/>
      <rect x="306" y="68" width="33" height="33" rx="2" fill="url(#ms-open)"/>
      <!-- row 3 -->
      <rect x="0" y="102" width="33" height="33" rx="2" fill="url(#ms-open)"/>
      <rect x="34" y="102" width="33" height="33" rx="2" fill="url(#ms-cell)"/>
      <rect x="68" y="102" width="33" height="33" rx="2" fill="url(#ms-open)"/>
      <rect x="102" y="102" width="33" height="33" rx="2" fill="url(#ms-open)"/>
      <rect x="136" y="102" width="33" height="33" rx="2" fill="url(#ms-cell)"/>
      <rect x="170" y="102" width="33" height="33" rx="2" fill="url(#ms-cell)"/>
      <rect x="204" y="102" width="33" height="33" rx="2" fill="url(#ms-cell)"/>
      <rect x="238" y="102" width="33" height="33" rx="2" fill="url(#ms-open)"/>
      <rect x="272" y="102" width="33" height="33" rx="2" fill="url(#ms-open)"/>
      <rect x="306" y="102" width="33" height="33" rx="2" fill="url(#ms-open)"/>
      <!-- row 4 -->
      <rect x="0" y="136" width="33" height="33" rx="2" fill="url(#ms-cell)"/>
      <rect x="34" y="136" width="33" height="33" rx="2" fill="url(#ms-cell)"/>
      <rect x="68" y="136" width="33" height="33" rx="2" fill="url(#ms-open)"/>
      <rect x="102" y="136" width="33" height="33" rx="2" fill="url(#ms-open)"/>
      <rect x="136" y="136" width="33" height="33" rx="2" fill="url(#ms-open)"/>
      <rect x="170" y="136" width="33" height="33" rx="2" fill="url(#ms-open)"/>
      <rect x="204" y="136" width="33" height="33" rx="2" fill="url(#ms-open)"/>
      <rect x="238" y="136" width="33" height="33" rx="2" fill="url(#ms-cell)"/>
      <rect x="272" y="136" width="33" height="33" rx="2" fill="url(#ms-open)"/>
      <rect x="306" y="136" width="33" height="33" rx="2" fill="url(#ms-open)"/>
      <!-- row 5 -->
      <rect x="0" y="170" width="33" height="33" rx="2" fill="url(#ms-open)"/>
      <rect x="34" y="170" width="33" height="33" rx="2" fill="url(#ms-open)"/>
      <rect x="68" y="170" width="33" height="33" rx="2" fill="url(#ms-cell)"/>
      <rect x="102" y="170" width="33" height="33" rx="2" fill="url(#ms-open)"/>
      <rect x="136" y="170" width="33" height="33" rx="2" fill="url(#ms-open)"/>
      <rect x="170" y="170" width="33" height="33" rx="2" fill="url(#ms-cell)"/>
      <rect x="204" y="170" width="33" height="33" rx="2" fill="url(#ms-open)"/>
      <rect x="238" y="170" width="33" height="33" rx="2" fill="url(#ms-open)"/>
      <rect x="272" y="170" width="33" height="33" rx="2" fill="url(#ms-cell)"/>
      <rect x="306" y="170" width="33" height="33" rx="2" fill="url(#ms-cell)"/>
      <!-- row 6 -->
      <rect x="0" y="204" width="33" height="33" rx="2" fill="url(#ms-open)"/>
      <rect x="34" y="204" width="33" height="33" rx="2" fill="url(#ms-cell)"/>
      <rect x="68" y="204" width="33" height="33" rx="2" fill="url(#ms-cell)"/>
      <rect x="102" y="204" width="33" height="33" rx="2" fill="url(#ms-open)"/>
      <rect x="136" y="204" width="33" height="33" rx="2" fill="url(#ms-cell)"/>
      <rect x="170" y="204" width="33" height="33" rx="2" fill="url(#ms-open)"/>
      <rect x="204" y="204" width="33" height="33" rx="2" fill="url(#ms-cell)"/>
      <rect x="238" y="204" width="33" height="33" rx="2" fill="url(#ms-cell)"/>
      <rect x="272" y="204" width="33" height="33" rx="2" fill="url(#ms-open)"/>
      <rect x="306" y="204" width="33" height="33" rx="2" fill="url(#ms-cell)"/>
    </g>
    <!-- Numbers on opened cells -->
    <g font-family="'Segoe UI',Arial" font-weight="bold" font-size="18" text-anchor="middle">
      <text x="16" y="22" fill="#1976d2">1</text>
      <text x="50" y="22" fill="#1976d2">1</text>
      <text x="152" y="22" fill="#388e3c">2</text>
      <text x="186" y="22" fill="#388e3c">2</text>
      <text x="288" y="22" fill="#d32f2f">3</text>
      <text x="322" y="22" fill="#1976d2">1</text>
      <text x="84" y="56" fill="#d32f2f">3</text>
      <text x="152" y="56" fill="#388e3c">2</text>
      <text x="186" y="56" fill="#7b1fa2">4</text>
      <text x="220" y="56" fill="#d32f2f">3</text>
      <text x="288" y="56" fill="#388e3c">2</text>
      <text x="322" y="56" fill="#1976d2">1</text>
      <text x="152" y="124" fill="#1976d2">1</text>
      <text x="16" y="158" fill="#1976d2">1</text>
      <text x="152" y="192" fill="#388e3c">2</text>
    </g>
    <!-- Flags on some unopened -->
    <g filter="url(#ms-sh)">
      <g transform="translate(85,185)">
        <line x1="0" y1="0" x2="0" y2="-18" stroke="#333" stroke-width="2"/>
        <polygon points="0,-18 0,-7 11,-13" fill="#e53935"/>
      </g>
      <g transform="translate(119,15)">
        <line x1="0" y1="0" x2="0" y2="-12" stroke="#333" stroke-width="2"/>
        <polygon points="0,-12 0,-2 10,-7" fill="#e53935"/>
      </g>
    </g>
    <!-- Exploded mine -->
    <g filter="url(#ms-sh)" transform="translate(255,186)">
      <circle r="13" fill="url(#ms-mine)"/>
      <g stroke="#111" stroke-width="2" stroke-linecap="round">
        <line x1="0" y1="-17" x2="0" y2="17"/><line x1="-17" y1="0" x2="17" y2="0"/>
        <line x1="-12" y1="-12" x2="12" y2="12"/><line x1="-12" y1="12" x2="12" y2="-12"/>
      </g>
      <circle cx="-4" cy="-4" r="3" fill="#fff" opacity="0.5"/>
    </g>
  </g>
  <g font-family="monospace" fill="#ff5d73">
    <text x="20" y="18" font-size="13" font-weight="bold">💣 08</text>
  </g>
  <g font-family="monospace" fill="#ffd166" text-anchor="end">
    <text x="380" y="18" font-size="13" font-weight="bold">⏱ 042</text>
  </g>
</svg>
