<svg xmlns="http://www.w3.org/2000/svg" viewBox="0 0 400 300">
  <rect width="400" height="300" fill="#000"/>
  <text x="200" y="30" font-family="monospace" font-weight="800" font-size="18" fill="#ffd166" text-anchor="middle" letter-spacing="4">MINI ROGUE</text>
  <!-- ASCII map -->
  <g font-family="monospace" font-size="16" letter-spacing="2">
    <text x="40" y="60" fill="#5a4a30">####################</text>
    <text x="40" y="78" fill="#5a4a30">#</text><text x="56" y="78" fill="#2a3450">..........</text><text x="180" y="78" fill="#5a4a30">#####</text><text x="240" y="78" fill="#2a3450">.....</text><text x="296" y="78" fill="#5a4a30">#</text>
    <text x="40" y="96" fill="#5a4a30">#</text><text x="56" y="96" fill="#2a3450">.</text><text x="68" y="96" fill="#56a8ff" font-weight="bold">@</text><text x="80" y="96" fill="#2a3450">........</text><text x="180" y="96" fill="#5a4a30">#</text><text x="192" y="96" fill="#2a3450">....</text><text x="232" y="96" fill="#5a4a30">.</text><text x="246" y="96" fill="#2a3450">....</text><text x="296" y="96" fill="#5a4a30">#</text>
    <text x="40" y="114" fill="#5a4a30">#</text><text x="56" y="114" fill="#2a3450">.....</text><text x="120" y="114" fill="#ffd166">$</text><text x="132" y="114" fill="#2a3450">....</text><text x="180" y="114" fill="#5a4a30">#</text><text x="192" y="114" fill="#2a3450">.</text><text x="208" y="114" fill="#ff3050" font-weight="bold">g</text><text x="220" y="114" fill="#2a3450">..</text><text x="244" y="114" fill="#5a4a30">.</text><text x="252" y="114" fill="#2a3450">.</text><text x="266" y="114" fill="#35d39a">!</text><text x="278" y="114" fill="#2a3450">..</text><text x="296" y="114" fill="#5a4a30">#</text>
    <text x="40" y="132" fill="#5a4a30">#####</text><text x="100" y="132" fill="#2a3450">.</text><text x="112" y="132" fill="#5a4a30">####</text><text x="156" y="132" fill="#2a3450">.</text><text x="170" y="132" fill="#5a4a30">####</text><text x="216" y="132" fill="#5a4a30">.</text><text x="232" y="132" fill="#5a4a30">####</text><text x="278" y="132" fill="#5a4a30">.####</text>
    <text x="40" y="150" fill="#5a4a30">#</text><text x="56" y="150" fill="#2a3450">....</text><text x="100" y="150" fill="#2a3450">.</text><text x="120" y="150" fill="#2a3450">..</text><text x="148" y="150" fill="#2a3450">....</text><text x="200" y="150" fill="#ff3050" font-weight="bold">g</text><text x="212" y="150" fill="#2a3450">....</text><text x="252" y="150" fill="#2a3450">.</text><text x="266" y="150" fill="#fff" font-weight="bold">&gt;</text><text x="280" y="150" fill="#2a3450">..</text><text x="296" y="150" fill="#5a4a30">#</text>
    <text x="40" y="168" fill="#5a4a30">#</text><text x="56" y="168" fill="#2a3450">..</text><text x="80" y="168" fill="#ffd166">$</text><text x="96" y="168" fill="#2a3450">..</text><text x="120" y="168" fill="#5a4a30">#</text><text x="132" y="168" fill="#2a3450">....</text><text x="180" y="168" fill="#5a4a30">#</text><text x="192" y="168" fill="#2a3450">....</text><text x="240" y="168" fill="#2a3450">.....</text><text x="296" y="168" fill="#5a4a30">#</text>
    <text x="40" y="186" fill="#5a4a30">#</text><text x="56" y="186" fill="#2a3450">.....</text><text x="120" y="186" fill="#5a4a30">#</text><text x="132" y="186" fill="#2a3450">..</text><text x="156" y="186" fill="#35d39a">!</text><text x="170" y="186" fill="#2a3450">.</text><text x="180" y="186" fill="#5a4a30">#</text><text x="192" y="186" fill="#2a3450">....</text><text x="232" y="186" fill="#2a3450">.</text><text x="248" y="186" fill="#ff3050" font-weight="bold">g</text><text x="260" y="186" fill="#2a3450">....</text><text x="296" y="186" fill="#5a4a30">#</text>
    <text x="40" y="204" fill="#5a4a30">####################</text>
  </g>
  <!-- HUD -->
  <g font-family="monospace" font-weight="bold" font-size="11">
    <text x="40" y="240" fill="#56a8ff">LVL: 3</text>
    <text x="100" y="240" fill="#ff3050">HP: 14/20</text>
    <text x="180" y="240" fill="#ffd166">GOLD: 42</text>
    <text x="260" y="240" fill="#56a8ff">XP: 18/30</text>
  </g>
  <text x="40" y="270" font-family="monospace" font-size="10" fill="#8fa8d0">You hit goblin for 5</text>
  <text x="40" y="284" font-family="monospace" font-size="10" fill="#8fa8d0">Goblin slain! +12 xp</text>
</svg>
