<svg xmlns="http://www.w3.org/2000/svg" viewBox="0 0 400 300">
  <rect width="400" height="300" fill="#1a1408"/>
  <g transform="translate(76,22)">
    <rect x="-8" y="-8" width="256" height="256" fill="#5a3a18"/>
    <!-- 8x8 board (32px cells) -->
    <g>
      <rect x="0" y="0" width="32" height="32" fill="#e5cc99"/><rect x="32" y="0" width="32" height="32" fill="#5a3a1a"/><rect x="64" y="0" width="32" height="32" fill="#e5cc99"/><rect x="96" y="0" width="32" height="32" fill="#5a3a1a"/><rect x="128" y="0" width="32" height="32" fill="#e5cc99"/><rect x="160" y="0" width="32" height="32" fill="#5a3a1a"/><rect x="192" y="0" width="32" height="32" fill="#e5cc99"/><rect x="224" y="0" width="32" height="32" fill="#5a3a1a"/>
      <rect x="0" y="32" width="32" height="32" fill="#5a3a1a"/><rect x="32" y="32" width="32" height="32" fill="#e5cc99"/><rect x="64" y="32" width="32" height="32" fill="#5a3a1a"/><rect x="96" y="32" width="32" height="32" fill="#e5cc99"/><rect x="128" y="32" width="32" height="32" fill="#5a3a1a"/><rect x="160" y="32" width="32" height="32" fill="#e5cc99"/><rect x="192" y="32" width="32" height="32" fill="#5a3a1a"/><rect x="224" y="32" width="32" height="32" fill="#e5cc99"/>
      <rect x="0" y="64" width="32" height="32" fill="#e5cc99"/><rect x="32" y="64" width="32" height="32" fill="#5a3a1a"/><rect x="64" y="64" width="32" height="32" fill="#e5cc99"/><rect x="96" y="64" width="32" height="32" fill="#5a3a1a"/><rect x="128" y="64" width="32" height="32" fill="#e5cc99"/><rect x="160" y="64" width="32" height="32" fill="#5a3a1a"/><rect x="192" y="64" width="32" height="32" fill="#e5cc99"/><rect x="224" y="64" width="32" height="32" fill="#5a3a1a"/>
      <rect x="0" y="96" width="32" height="32" fill="#5a3a1a"/><rect x="32" y="96" width="32" height="32" fill="#e5cc99"/><rect x="64" y="96" width="32" height="32" fill="#5a3a1a"/><rect x="96" y="96" width="32" height="32" fill="#e5cc99"/><rect x="128" y="96" width="32" height="32" fill="#5a3a1a"/><rect x="160" y="96" width="32" height="32" fill="#e5cc99"/><rect x="192" y="96" width="32" height="32" fill="#5a3a1a"/><rect x="224" y="96" width="32" height="32" fill="#e5cc99"/>
      <rect x="0" y="128" width="32" height="32" fill="#e5cc99"/><rect x="32" y="128" width="32" height="32" fill="#5a3a1a"/><rect x="64" y="128" width="32" height="32" fill="#e5cc99"/><rect x="96" y="128" width="32" height="32" fill="#5a3a1a"/><rect x="128" y="128" width="32" height="32" fill="#e5cc99"/><rect x="160" y="128" width="32" height="32" fill="#5a3a1a"/><rect x="192" y="128" width="32" height="32" fill="#e5cc99"/><rect x="224" y="128" width="32" height="32" fill="#5a3a1a"/>
      <rect x="0" y="160" width="32" height="32" fill="#5a3a1a"/><rect x="32" y="160" width="32" height="32" fill="#e5cc99"/><rect x="64" y="160" width="32" height="32" fill="#5a3a1a"/><rect x="96" y="160" width="32" height="32" fill="#e5cc99"/><rect x="128" y="160" width="32" height="32" fill="#5a3a1a"/><rect x="160" y="160" width="32" height="32" fill="#e5cc99"/><rect x="192" y="160" width="32" height="32" fill="#5a3a1a"/><rect x="224" y="160" width="32" height="32" fill="#e5cc99"/>
      <rect x="0" y="192" width="32" height="32" fill="#e5cc99"/><rect x="32" y="192" width="32" height="32" fill="#5a3a1a"/><rect x="64" y="192" width="32" height="32" fill="#e5cc99"/><rect x="96" y="192" width="32" height="32" fill="#5a3a1a"/><rect x="128" y="192" width="32" height="32" fill="#e5cc99"/><rect x="160" y="192" width="32" height="32" fill="#5a3a1a"/><rect x="192" y="192" width="32" height="32" fill="#e5cc99"/><rect x="224" y="192" width="32" height="32" fill="#5a3a1a"/>
      <rect x="0" y="224" width="32" height="32" fill="#5a3a1a"/><rect x="32" y="224" width="32" height="32" fill="#e5cc99"/><rect x="64" y="224" width="32" height="32" fill="#5a3a1a"/><rect x="96" y="224" width="32" height="32" fill="#e5cc99"/><rect x="128" y="224" width="32" height="32" fill="#5a3a1a"/><rect x="160" y="224" width="32" height="32" fill="#e5cc99"/><rect x="192" y="224" width="32" height="32" fill="#5a3a1a"/><rect x="224" y="224" width="32" height="32" fill="#e5cc99"/>
    </g>
    <!-- queens at non-attacking positions (one valid solution) -->
    <g font-family="serif" font-size="32" text-anchor="middle">
      <text x="16" y="22">♛</text>
      <text x="144" y="54" fill="#ffd166">♛</text>
      <text x="240" y="86">♛</text>
      <text x="80" y="118" fill="#ffd166">♛</text>
      <text x="208" y="150" fill="#ffd166">♛</text>
      <text x="48" y="182" fill="#ffd166">♛</text>
      <text x="176" y="214">♛</text>
      <text x="112" y="246">♛</text>
    </g>
  </g>
  <text x="200" y="288" font-family="monospace" font-weight="bold" font-size="11" fill="#ffd166" text-anchor="middle" letter-spacing="3">N-QUEENS · 8/8 SOLVED</text>
</svg>
