<svg xmlns="http://www.w3.org/2000/svg" viewBox="0 0 400 300">
  <rect width="400" height="300" fill="#0a0a18"/>
  <text x="200" y="32" font-family="system-ui" font-weight="800" font-size="20" fill="#ffd166" text-anchor="middle" letter-spacing="6">WORD HUNT</text>
  <text x="200" y="58" font-family="monospace" font-size="20" font-weight="800" fill="#56a8ff" text-anchor="middle" letter-spacing="3">CRAFT</text>
  <!-- 4x4 grid -->
  <g transform="translate(120,80)">
    <g>
      <rect x="0" y="0" width="40" height="40" rx="8" fill="#1a1f4a" stroke="#2a3470" stroke-width="2"/>
      <rect x="44" y="0" width="40" height="40" rx="8" fill="#56a8ff"/>
      <rect x="88" y="0" width="40" height="40" rx="8" fill="#56a8ff"/>
      <rect x="132" y="0" width="40" height="40" rx="8" fill="#1a1f4a" stroke="#2a3470" stroke-width="2"/>

      <rect x="0" y="44" width="40" height="40" rx="8" fill="#56a8ff"/>
      <rect x="44" y="44" width="40" height="40" rx="8" fill="#1a1f4a" stroke="#2a3470" stroke-width="2"/>
      <rect x="88" y="44" width="40" height="40" rx="8" fill="#56a8ff"/>
      <rect x="132" y="44" width="40" height="40" rx="8" fill="#1a1f4a" stroke="#2a3470" stroke-width="2"/>

      <rect x="0" y="88" width="40" height="40" rx="8" fill="#1a1f4a" stroke="#2a3470" stroke-width="2"/>
      <rect x="44" y="88" width="40" height="40" rx="8" fill="#56a8ff"/>
      <rect x="88" y="88" width="40" height="40" rx="8" fill="#1a1f4a" stroke="#2a3470" stroke-width="2"/>
      <rect x="132" y="88" width="40" height="40" rx="8" fill="#1a1f4a" stroke="#2a3470" stroke-width="2"/>

      <rect x="0" y="132" width="40" height="40" rx="8" fill="#1a1f4a" stroke="#2a3470" stroke-width="2"/>
      <rect x="44" y="132" width="40" height="40" rx="8" fill="#1a1f4a" stroke="#2a3470" stroke-width="2"/>
      <rect x="88" y="132" width="40" height="40" rx="8" fill="#1a1f4a" stroke="#2a3470" stroke-width="2"/>
      <rect x="132" y="132" width="40" height="40" rx="8" fill="#1a1f4a" stroke="#2a3470" stroke-width="2"/>
    </g>
    <!-- letters -->
    <g font-family="monospace" font-weight="800" font-size="22" text-anchor="middle">
      <text x="20" y="28" fill="#fff">B</text><text x="64" y="28" fill="#000">C</text><text x="108" y="28" fill="#000">R</text><text x="152" y="28" fill="#fff">T</text>
      <text x="20" y="72" fill="#000">U</text><text x="64" y="72" fill="#fff">A</text><text x="108" y="72" fill="#000">A</text><text x="152" y="72" fill="#fff">S</text>
      <text x="20" y="116" fill="#fff">M</text><text x="64" y="116" fill="#000">F</text><text x="108" y="116" fill="#fff">T</text><text x="152" y="116" fill="#fff">E</text>
      <text x="20" y="160" fill="#fff">L</text><text x="64" y="160" fill="#fff">N</text><text x="108" y="160" fill="#fff">P</text><text x="152" y="160" fill="#fff">D</text>
    </g>
    <!-- selection trail -->
    <g stroke="#56a8ff" stroke-width="3" fill="none" opacity="0.7">
      <line x1="64" y1="20" x2="108" y2="20"/>
      <line x1="108" y1="20" x2="64" y2="64"/>
      <line x1="64" y1="64" x2="64" y2="108"/>
      <line x1="64" y1="108" x2="108" y2="108"/>
    </g>
  </g>
  <text x="200" y="288" font-family="monospace" font-size="11" fill="#35d39a" text-anchor="middle" font-weight="bold">SCORE 1240 · 8 WORDS · 0:42</text>
</svg>
