<svg xmlns="http://www.w3.org/2000/svg" viewBox="0 0 400 300">
  <defs>
    <linearGradient id="zp-bg" x1="0" y1="0" x2="1" y2="1"><stop offset="0%" stop-color="#2a1a4a"/><stop offset="100%" stop-color="#0a0520"/></linearGradient>
    <linearGradient id="zp-t1" x1="0" y1="0" x2="0" y2="1"><stop offset="0%" stop-color="#ff5f8f"/><stop offset="100%" stop-color="#a01a40"/></linearGradient>
    <linearGradient id="zp-t2" x1="0" y1="0" x2="0" y2="1"><stop offset="0%" stop-color="#4ff0dc"/><stop offset="100%" stop-color="#1a8a80"/></linearGradient>
    <linearGradient id="zp-t3" x1="0" y1="0" x2="0" y2="1"><stop offset="0%" stop-color="#ffe066"/><stop offset="100%" stop-color="#a07010"/></linearGradient>
    <linearGradient id="zp-t4" x1="0" y1="0" x2="0" y2="1"><stop offset="0%" stop-color="#a77bff"/><stop offset="100%" stop-color="#4a2a9e"/></linearGradient>
    <filter id="zp-sh"><feDropShadow dx="1" dy="2" stdDeviation="1.5" flood-opacity="0.4"/></filter>
  </defs>
  <rect width="400" height="300" fill="url(#zp-bg)"/>
  <!-- Board of colored tiles with some flipping -->
  <g filter="url(#zp-sh)">
    <rect x="80" y="50" width="48" height="48" rx="4" fill="url(#zp-t1)"/>
    <rect x="136" y="50" width="48" height="48" rx="4" fill="url(#zp-t2)"/>
    <rect x="192" y="50" width="48" height="48" rx="4" fill="url(#zp-t3)"/>
    <rect x="248" y="50" width="48" height="48" rx="4" fill="url(#zp-t1)"/>
    <rect x="304" y="50" width="48" height="48" rx="4" fill="url(#zp-t4)"/>
    <rect x="80" y="106" width="48" height="48" rx="4" fill="url(#zp-t3)"/>
    <rect x="136" y="106" width="48" height="48" rx="4" fill="url(#zp-t2)"/>
    <rect x="192" y="106" width="48" height="48" rx="4" fill="url(#zp-t4)"/>
    <rect x="248" y="106" width="48" height="48" rx="4" fill="url(#zp-t2)"/>
    <rect x="304" y="106" width="48" height="48" rx="4" fill="url(#zp-t1)"/>
    <rect x="80" y="162" width="48" height="48" rx="4" fill="url(#zp-t2)"/>
    <rect x="136" y="162" width="48" height="48" rx="4" fill="url(#zp-t1)"/>
    <rect x="192" y="162" width="48" height="48" rx="4" fill="url(#zp-t2)"/>
    <rect x="248" y="162" width="48" height="48" rx="4" fill="url(#zp-t3)"/>
    <rect x="304" y="162" width="48" height="48" rx="4" fill="url(#zp-t4)"/>
    <rect x="80" y="218" width="48" height="48" rx="4" fill="url(#zp-t4)"/>
    <rect x="136" y="218" width="48" height="48" rx="4" fill="url(#zp-t1)"/>
    <rect x="192" y="218" width="48" height="48" rx="4" fill="url(#zp-t3)"/>
    <rect x="248" y="218" width="48" height="48" rx="4" fill="url(#zp-t2)"/>
    <rect x="304" y="218" width="48" height="48" rx="4" fill="url(#zp-t2)"/>
  </g>
  <!-- Selected tile (highlighted) -->
  <g transform="translate(216,130)"><rect x="-28" y="-28" width="56" height="56" rx="5" fill="none" stroke="#fff" stroke-width="3"/></g>
  <g font-family="monospace" fill="#4ff0dc" font-weight="bold"><text x="20" y="28" font-size="11">ZOP</text><text x="20" y="50" font-size="18">MATCH 4</text></g>
  <g font-family="monospace" fill="#ffe066" text-anchor="end" font-weight="bold"><text x="380" y="28" font-size="11">MOVES</text><text x="380" y="50" font-size="22">18</text></g>
</svg>
